<svg width="801" height="293" viewBox="0 0 801 293" fill="none" xmlns="http://www.w3.org/2000/svg">
<g clip-path="url(#clip0_826_125825)">
<path d="M542.945 92.0851V79.7831C542.944 79.4179 542.841 79.0603 542.648 78.7501C542.455 78.4398 542.18 78.189 541.853 78.0256L526.129 70.1663C525.827 70.018 525.493 69.9489 525.158 69.9652C524.822 69.9816 524.497 70.0831 524.211 70.26C523.926 70.4369 523.691 70.6835 523.527 70.9765C523.363 71.2695 523.277 71.5992 523.277 71.9347V80.2962C523.277 80.6318 523.191 80.962 523.028 81.2553C522.864 81.5485 522.628 81.795 522.342 81.9712C522.056 82.1475 521.73 82.2475 521.394 82.262C521.059 82.2764 520.725 82.2046 520.425 82.0536L513.442 78.5714L496.625 70.1663C496.324 70.018 495.99 69.9489 495.655 69.9652C495.319 69.9816 494.994 70.0831 494.708 70.26C494.423 70.4369 494.187 70.6835 494.024 70.9765C493.86 71.2695 493.774 71.5992 493.773 71.9347V106.865C493.773 107.232 493.875 107.592 494.068 107.904C494.261 108.217 494.538 108.469 494.866 108.633L502.515 112.454C502.842 112.617 503.117 112.868 503.31 113.178C503.503 113.489 503.606 113.846 503.608 114.211V117.093C503.608 117.615 503.812 118.116 504.176 118.49L508.547 122.857C508.791 123.086 508.972 123.374 509.074 123.693C509.175 124.012 509.194 124.351 509.127 124.679C509.06 125.007 508.911 125.313 508.692 125.567C508.474 125.821 508.195 126.015 507.88 126.131L504.875 127.343C504.509 127.486 504.195 127.737 503.975 128.063C503.754 128.388 503.638 128.773 503.641 129.166V129.559C503.641 129.895 503.555 130.225 503.392 130.518C503.228 130.811 502.992 131.058 502.706 131.234C502.42 131.41 502.094 131.51 501.758 131.525C501.423 131.539 501.089 131.467 500.789 131.316L496.658 129.253C496.357 129.105 496.023 129.036 495.687 129.052C495.352 129.068 495.026 129.17 494.741 129.347C494.456 129.524 494.22 129.77 494.057 130.063C493.893 130.356 493.807 130.686 493.806 131.022V165.952C493.806 166.319 493.908 166.679 494.101 166.991C494.294 167.304 494.57 167.556 494.899 167.72L513.475 176.999L552.813 196.647L569.629 205.041C569.929 205.192 570.263 205.264 570.599 205.249C570.935 205.235 571.261 205.135 571.547 204.959C571.833 204.782 572.069 204.536 572.233 204.243C572.396 203.95 572.482 203.619 572.481 203.284V168.353C572.48 167.988 572.377 167.631 572.184 167.32C571.991 167.01 571.716 166.759 571.389 166.596L553.905 157.863C553.577 157.699 553.3 157.447 553.107 157.134C552.914 156.822 552.812 156.462 552.813 156.095V148.312C552.813 148.053 552.761 147.796 552.662 147.556C552.563 147.316 552.417 147.098 552.233 146.915L540.869 135.573C540.628 135.343 540.449 135.055 540.349 134.736C540.25 134.418 540.232 134.079 540.299 133.752C540.365 133.426 540.514 133.121 540.73 132.866C540.946 132.612 541.223 132.417 541.536 132.299L550.103 128.871C550.402 128.749 550.726 128.703 551.047 128.736C551.368 128.769 551.676 128.88 551.944 129.061C552.212 129.241 552.431 129.484 552.583 129.769C552.734 130.054 552.813 130.371 552.813 130.694V136.392C552.812 136.759 552.914 137.119 553.107 137.431C553.3 137.744 553.577 137.996 553.905 138.16L569.64 146.009C569.94 146.16 570.274 146.232 570.61 146.217C570.946 146.203 571.272 146.103 571.558 145.926C571.844 145.75 572.08 145.504 572.244 145.211C572.407 144.917 572.493 144.587 572.492 144.251V109.321C572.49 108.956 572.387 108.598 572.195 108.288C572.002 107.978 571.726 107.727 571.4 107.564L552.823 98.2853L544.082 93.919C543.735 93.7562 543.443 93.4962 543.241 93.1706C543.039 92.8451 542.937 92.4679 542.945 92.0851ZM542.945 157.165L552.201 166.41C552.384 166.594 552.53 166.812 552.629 167.051C552.729 167.291 552.78 167.548 552.78 167.807V173.626C552.78 173.961 552.695 174.292 552.531 174.585C552.368 174.878 552.131 175.125 551.845 175.301C551.559 175.477 551.233 175.577 550.897 175.591C550.562 175.606 550.228 175.534 549.928 175.383L544.027 172.447C543.699 172.282 543.422 172.03 543.229 171.718C543.036 171.405 542.934 171.045 542.934 170.678V158.376C542.933 158.011 542.83 157.654 542.637 157.343C542.444 157.033 542.169 156.782 541.842 156.619L526.118 148.76C525.816 148.611 525.482 148.542 525.147 148.559C524.811 148.575 524.486 148.676 524.2 148.853C523.915 149.03 523.68 149.277 523.516 149.57C523.353 149.863 523.266 150.192 523.266 150.528V158.889C523.266 159.225 523.181 159.555 523.017 159.849C522.853 160.142 522.617 160.388 522.331 160.564C522.045 160.741 521.719 160.841 521.383 160.855C521.048 160.87 520.714 160.798 520.414 160.647L514.513 157.71C514.184 157.546 513.908 157.294 513.715 156.981C513.522 156.669 513.42 156.309 513.42 155.942V144.743C513.418 144.35 513.534 143.965 513.754 143.64C513.975 143.314 514.289 143.063 514.655 142.92L523.397 139.405C523.754 139.261 524.146 139.226 524.523 139.303C524.9 139.381 525.246 139.568 525.517 139.841L542.945 157.165ZM513.442 107.225V101.407C513.443 101.072 513.529 100.742 513.693 100.449C513.856 100.156 514.092 99.9094 514.377 99.7325C514.662 99.5556 514.988 99.4541 515.323 99.4377C515.659 99.4213 515.993 99.4905 516.294 99.6388L537.919 110.445C538.257 110.616 538.539 110.881 538.731 111.207C538.924 111.533 539.018 111.908 539.003 112.287C538.988 112.665 538.864 113.031 538.647 113.341C538.43 113.652 538.128 113.893 537.777 114.037L525.888 118.752C525.529 118.895 525.136 118.93 524.757 118.853C524.379 118.775 524.031 118.588 523.757 118.316L514.01 108.59C513.654 108.223 513.451 107.736 513.442 107.225Z" fill="white"/>
<path d="M44.2442 154.185L77.8778 170.984C78.1779 171.135 78.5117 171.207 78.8474 171.193C79.1832 171.178 79.5096 171.078 79.7956 170.902C80.0815 170.726 80.3176 170.479 80.4811 170.186C80.6447 169.893 80.7303 169.563 80.7298 169.227V144.121C80.7281 143.755 80.625 143.398 80.4321 143.088C80.2392 142.777 79.964 142.527 79.6371 142.363L42.485 123.807C42.1564 123.642 41.8801 123.39 41.6871 123.077C41.4941 122.765 41.392 122.405 41.3922 122.038V94.9999C41.3905 94.6347 41.2874 94.2772 41.0946 93.9669C40.9017 93.6567 40.6265 93.4059 40.2995 93.2425L4.90668 75.559C4.60544 75.4108 4.27137 75.3414 3.93595 75.3578C3.60053 75.3742 3.27479 75.4757 2.98947 75.6526C2.70414 75.8295 2.46863 76.076 2.30509 76.369C2.14155 76.662 2.05536 76.9919 2.05469 77.3274V181.027C2.05441 181.394 2.1565 181.754 2.34951 182.066C2.54251 182.378 2.8188 182.631 3.1474 182.795L38.5512 200.468C38.8513 200.619 39.1851 200.69 39.5208 200.676C39.8565 200.662 40.1829 200.562 40.4689 200.385C40.7549 200.209 40.9909 199.963 41.1545 199.669C41.318 199.376 41.4037 199.046 41.4032 198.71V155.964C41.4029 155.629 41.4879 155.3 41.65 155.007C41.8122 154.714 42.0464 154.467 42.3304 154.289C42.6145 154.111 42.9392 154.008 43.2739 153.99C43.6087 153.972 43.9426 154.039 44.2442 154.185Z" fill="white"/>
<path d="M59.9682 93.2758L54.0786 90.3284C53.7773 90.1802 53.4432 90.111 53.1078 90.1274C52.7724 90.1437 52.4467 90.2452 52.1613 90.4221C51.876 90.599 51.6405 90.8456 51.477 91.1386C51.3134 91.4316 51.2272 91.7613 51.2266 92.0968V117.203C51.2263 117.57 51.3284 117.93 51.5214 118.242C51.7144 118.555 51.9907 118.807 52.3193 118.971L58.2199 121.908C58.52 122.059 58.8538 122.131 59.1895 122.116C59.5252 122.102 59.8517 122.002 60.1376 121.825C60.4236 121.649 60.6596 121.403 60.8232 121.109C60.9867 120.816 61.0724 120.486 61.0719 120.15V95.0441C61.0711 94.6759 60.9674 94.3152 60.7724 94.0028C60.5774 93.6903 60.2989 93.4385 59.9682 93.2758Z" fill="white"/>
<path d="M79.6362 103.098L73.7465 100.151C73.4453 100.002 73.1112 99.9332 72.7758 99.9496C72.4404 99.966 72.1146 100.067 71.8293 100.244C71.544 100.421 71.3085 100.668 71.1449 100.961C70.9814 101.254 70.8952 101.584 70.8945 101.919V127.025C70.8943 127.392 70.9963 127.752 71.1894 128.065C71.3824 128.377 71.6586 128.629 71.9872 128.794L77.8879 131.73C78.188 131.881 78.5218 131.953 78.8575 131.938C79.1932 131.924 79.5196 131.824 79.8056 131.648C80.0916 131.471 80.3276 131.225 80.4912 130.932C80.6547 130.638 80.7403 130.308 80.7399 129.973V104.866C80.7391 104.498 80.6354 104.137 80.4404 103.825C80.2454 103.513 79.9668 103.261 79.6362 103.098Z" fill="white"/>
<path d="M236.988 93.2758L231.098 90.3284C230.797 90.1802 230.463 90.111 230.127 90.1274C229.792 90.1437 229.466 90.2452 229.181 90.4221C228.896 90.599 228.66 90.8456 228.496 91.1386C228.333 91.4316 228.247 91.7613 228.246 92.0968V117.203C228.246 117.57 228.348 117.93 228.541 118.242C228.734 118.555 229.01 118.807 229.339 118.971L235.239 121.908C235.54 122.059 235.873 122.131 236.209 122.116C236.545 122.102 236.871 122.002 237.157 121.825C237.443 121.649 237.679 121.403 237.843 121.109C238.006 120.816 238.092 120.486 238.091 120.15V95.0441C238.091 94.6759 237.987 94.3152 237.792 94.0028C237.597 93.6903 237.318 93.4385 236.988 93.2758Z" fill="white"/>
<path d="M256.656 103.098L250.766 100.151C250.465 100.002 250.131 99.9332 249.795 99.9496C249.46 99.966 249.134 100.067 248.849 100.244C248.564 100.421 248.328 100.668 248.164 100.961C248.001 101.254 247.915 101.584 247.914 101.919V127.025C247.914 127.392 248.016 127.752 248.209 128.065C248.402 128.377 248.678 128.629 249.007 128.794L254.907 131.73C255.207 131.881 255.541 131.953 255.877 131.938C256.213 131.924 256.539 131.824 256.825 131.648C257.111 131.471 257.347 131.225 257.511 130.932C257.674 130.638 257.76 130.308 257.759 129.973V104.866C257.759 104.498 257.655 104.137 257.46 103.825C257.265 103.513 256.986 103.261 256.656 103.098Z" fill="white"/>
<path d="M169.24 188.875V163.769C169.238 163.404 169.135 163.046 168.942 162.736C168.749 162.426 168.474 162.175 168.147 162.012L150.663 153.279C150.335 153.115 150.059 152.862 149.866 152.55C149.673 152.238 149.571 151.878 149.571 151.511V146.053C149.571 145.717 149.658 145.388 149.821 145.095C149.985 144.802 150.22 144.555 150.506 144.378C150.791 144.201 151.117 144.1 151.452 144.084C151.787 144.067 152.122 144.136 152.423 144.285L166.388 151.26C166.688 151.411 167.021 151.483 167.357 151.468C167.693 151.454 168.019 151.354 168.305 151.177C168.591 151.001 168.827 150.755 168.991 150.461C169.154 150.168 169.24 149.838 169.24 149.502V124.396C169.238 124.031 169.135 123.673 168.942 123.363C168.749 123.053 168.474 122.802 168.147 122.639L150.663 113.906C150.335 113.742 150.059 113.489 149.866 113.177C149.673 112.865 149.571 112.505 149.571 112.138V94.9237C149.569 94.5585 149.466 94.2009 149.273 93.8906C149.08 93.5804 148.805 93.3297 148.478 93.1663L113.085 75.4827C112.784 75.3345 112.45 75.2653 112.114 75.2817C111.779 75.298 111.453 75.3995 111.168 75.5764C110.883 75.7533 110.647 75.9999 110.484 76.2929C110.32 76.5859 110.234 76.9156 110.233 77.2511V90.5246C110.234 90.8603 110.148 91.1905 109.985 91.4838C109.821 91.777 109.585 92.0235 109.299 92.1997C109.013 92.3759 108.687 92.476 108.351 92.4905C108.015 92.5049 107.681 92.4331 107.381 92.2821L93.4164 85.3069C93.1152 85.1586 92.7811 85.0894 92.4457 85.1058C92.1103 85.1222 91.7846 85.2236 91.4992 85.4006C91.2139 85.5775 90.9784 85.824 90.8148 86.117C90.6513 86.41 90.5651 86.7398 90.5645 87.0752V112.181C90.5642 112.548 90.6663 112.908 90.8593 113.221C91.0523 113.533 91.3286 113.785 91.6572 113.95L109.141 122.682C109.467 122.846 109.743 123.097 109.936 123.407C110.128 123.717 110.231 124.075 110.233 124.44V129.898C110.234 130.233 110.148 130.564 109.985 130.857C109.821 131.15 109.585 131.396 109.299 131.573C109.013 131.749 108.687 131.849 108.351 131.863C108.015 131.878 107.681 131.806 107.381 131.655L93.4164 124.68C93.1152 124.532 92.7811 124.462 92.4457 124.479C92.1103 124.495 91.7846 124.597 91.4992 124.774C91.2139 124.95 90.9784 125.197 90.8148 125.49C90.6513 125.783 90.5651 126.113 90.5645 126.448V151.555C90.5642 151.922 90.6663 152.281 90.8593 152.594C91.0523 152.906 91.3286 153.159 91.6572 153.323L109.141 162.055C109.467 162.219 109.743 162.47 109.936 162.78C110.128 163.09 110.231 163.448 110.233 163.813V180.972C110.233 181.339 110.335 181.699 110.528 182.012C110.721 182.324 110.997 182.576 111.326 182.741L146.73 200.413C147.03 200.564 147.364 200.636 147.699 200.622C148.035 200.607 148.361 200.507 148.647 200.331C148.933 200.155 149.169 199.908 149.333 199.615C149.497 199.322 149.582 198.991 149.582 198.656V185.382C149.582 185.047 149.669 184.717 149.832 184.424C149.996 184.131 150.231 183.884 150.516 183.708C150.802 183.531 151.128 183.429 151.463 183.413C151.798 183.396 152.132 183.466 152.434 183.614L166.399 190.589C166.695 190.736 167.024 190.806 167.354 190.792C167.685 190.779 168.007 190.682 168.29 190.511C168.573 190.34 168.809 190.101 168.975 189.815C169.141 189.529 169.232 189.206 169.24 188.875Z" fill="white"/>
<path d="M221.264 154.185L254.897 170.984C255.197 171.135 255.531 171.207 255.867 171.193C256.203 171.178 256.529 171.078 256.815 170.902C257.101 170.726 257.337 170.479 257.501 170.186C257.664 169.893 257.75 169.563 257.749 169.227V144.121C257.748 143.755 257.644 143.398 257.452 143.088C257.259 142.777 256.984 142.527 256.657 142.363L219.504 123.807C219.176 123.642 218.9 123.39 218.707 123.077C218.514 122.765 218.411 122.405 218.412 122.038V94.9999C218.41 94.6347 218.307 94.2772 218.114 93.9669C217.921 93.6567 217.646 93.4059 217.319 93.2425L181.926 75.559C181.625 75.4108 181.291 75.3414 180.955 75.3578C180.62 75.3742 180.294 75.4757 180.009 75.6526C179.724 75.8295 179.488 76.076 179.325 76.369C179.161 76.662 179.075 76.9919 179.074 77.3274V181.027C179.074 181.394 179.176 181.754 179.369 182.066C179.562 182.378 179.838 182.631 180.167 182.795L215.571 200.468C215.871 200.619 216.205 200.69 216.54 200.676C216.876 200.662 217.202 200.562 217.488 200.385C217.774 200.209 218.01 199.963 218.174 199.669C218.338 199.376 218.423 199.046 218.423 198.71V155.964C218.422 155.629 218.507 155.3 218.67 155.007C218.832 154.714 219.066 154.467 219.35 154.289C219.634 154.111 219.959 154.008 220.293 153.99C220.628 153.972 220.962 154.039 221.264 154.185Z" fill="white"/>
<path d="M346.257 188.875V163.769C346.255 163.404 346.152 163.046 345.959 162.736C345.767 162.426 345.491 162.175 345.164 162.012L327.681 153.279C327.352 153.115 327.076 152.862 326.883 152.55C326.69 152.238 326.588 151.878 326.588 151.511V146.053C326.589 145.717 326.675 145.388 326.839 145.095C327.002 144.802 327.238 144.555 327.523 144.378C327.808 144.201 328.134 144.1 328.47 144.084C328.805 144.067 329.139 144.136 329.44 144.285L343.405 151.26C343.705 151.411 344.039 151.483 344.375 151.468C344.71 151.454 345.037 151.354 345.323 151.177C345.609 151.001 345.845 150.755 346.008 150.461C346.172 150.168 346.258 149.838 346.257 149.502V124.396C346.255 124.031 346.152 123.673 345.959 123.363C345.767 123.053 345.491 122.802 345.164 122.639L327.681 113.906C327.352 113.742 327.076 113.489 326.883 113.177C326.69 112.865 326.588 112.505 326.588 112.138V94.9237C326.587 94.5585 326.484 94.2009 326.291 93.8906C326.098 93.5804 325.823 93.3297 325.496 93.1663L290.103 75.4827C289.802 75.3345 289.467 75.2653 289.132 75.2817C288.797 75.298 288.471 75.3995 288.186 75.5764C287.9 75.7533 287.665 75.9999 287.501 76.2929C287.338 76.5859 287.251 76.9156 287.251 77.2511V90.5246C287.251 90.8603 287.166 91.1905 287.002 91.4838C286.839 91.777 286.603 92.0235 286.317 92.1997C286.031 92.3759 285.704 92.476 285.368 92.4905C285.033 92.5049 284.699 92.4331 284.399 92.2821L270.434 85.3069C270.133 85.1586 269.799 85.0894 269.463 85.1058C269.128 85.1222 268.802 85.2236 268.517 85.4006C268.231 85.5775 267.996 85.824 267.832 86.117C267.669 86.41 267.583 86.7398 267.582 87.0752V112.181C267.582 112.548 267.684 112.908 267.877 113.221C268.07 113.533 268.346 113.785 268.675 113.95L286.158 122.682C286.485 122.846 286.76 123.097 286.953 123.407C287.146 123.717 287.249 124.075 287.251 124.44V129.898C287.251 130.233 287.166 130.564 287.002 130.857C286.839 131.15 286.603 131.396 286.317 131.573C286.031 131.749 285.704 131.849 285.368 131.863C285.033 131.878 284.699 131.806 284.399 131.655L270.434 124.68C270.133 124.532 269.799 124.462 269.463 124.479C269.128 124.495 268.802 124.597 268.517 124.774C268.231 124.95 267.996 125.197 267.832 125.49C267.669 125.783 267.583 126.113 267.582 126.448V151.555C267.582 151.922 267.684 152.281 267.877 152.594C268.07 152.906 268.346 153.159 268.675 153.323L286.158 162.055C286.485 162.219 286.76 162.47 286.953 162.78C287.146 163.09 287.249 163.448 287.251 163.813V180.972C287.251 181.339 287.353 181.699 287.546 182.012C287.739 182.324 288.015 182.576 288.344 182.741L323.747 200.413C324.047 200.564 324.381 200.636 324.717 200.622C325.053 200.607 325.379 200.507 325.665 200.331C325.951 200.155 326.187 199.908 326.351 199.615C326.514 199.322 326.6 198.991 326.599 198.656V185.382C326.6 185.047 326.686 184.717 326.85 184.424C327.013 184.131 327.249 183.884 327.534 183.708C327.819 183.531 328.145 183.429 328.481 183.413C328.816 183.396 329.15 183.466 329.451 183.614L343.416 190.589C343.712 190.736 344.041 190.806 344.372 190.792C344.702 190.779 345.024 190.682 345.308 190.511C345.591 190.34 345.826 190.101 345.992 189.815C346.158 189.529 346.249 189.206 346.257 188.875Z" fill="white"/>
<path d="M470.904 120.454L449.869 137.308C449.648 137.486 449.39 137.614 449.114 137.683C448.838 137.752 448.551 137.76 448.271 137.707C447.992 137.654 447.727 137.541 447.496 137.376C447.264 137.211 447.071 136.998 446.93 136.752L428.605 104.725C428.389 104.35 428.055 104.056 427.654 103.89C427.254 103.724 426.81 103.695 426.392 103.807C425.973 103.919 425.603 104.166 425.34 104.51C425.076 104.853 424.933 105.274 424.934 105.707V137.068C424.934 137.408 425.02 137.742 425.185 138.04L431.807 149.61C432.04 150.017 432.119 150.494 432.031 150.954C431.943 151.415 431.693 151.828 431.326 152.121L426.31 156.138C425.93 156.44 425.452 156.592 424.967 156.566C424.482 156.54 424.023 156.337 423.677 155.996L405.822 138.127C405.458 137.753 405.255 137.252 405.254 136.73V135.824C405.247 135.484 405.328 135.148 405.49 134.849C405.652 134.549 405.888 134.297 406.177 134.117C406.465 133.937 406.796 133.834 407.136 133.819C407.476 133.805 407.814 133.879 408.117 134.034L412.247 136.097C412.547 136.248 412.881 136.319 413.217 136.305C413.553 136.291 413.879 136.191 414.165 136.014C414.451 135.838 414.687 135.592 414.851 135.298C415.014 135.005 415.1 134.675 415.099 134.339V119.057C415.099 118.692 414.996 118.334 414.803 118.023C414.61 117.713 414.334 117.462 414.007 117.3L406.358 113.479C406.029 113.315 405.753 113.063 405.56 112.75C405.367 112.438 405.265 112.078 405.265 111.711V106.253C405.275 105.923 405.369 105.601 405.537 105.316C405.705 105.032 405.942 104.795 406.226 104.626C406.511 104.457 406.833 104.363 407.163 104.352C407.494 104.34 407.822 104.412 408.117 104.561L412.247 106.624C412.547 106.775 412.881 106.847 413.217 106.833C413.553 106.818 413.879 106.718 414.165 106.542C414.451 106.366 414.687 106.119 414.851 105.826C415.014 105.533 415.1 105.202 415.099 104.867V89.5848C415.099 89.2193 414.996 88.8612 414.803 88.5508C414.61 88.2403 414.334 87.9898 414.007 87.8274L378.614 70.1438C378.313 69.9923 377.978 69.9206 377.641 69.9355C377.305 69.9504 376.978 70.0516 376.691 70.2291C376.405 70.4066 376.169 70.6546 376.006 70.9493C375.844 71.244 375.759 71.5755 375.762 71.9121V87.1942C375.761 87.5612 375.864 87.9211 376.057 88.2335C376.25 88.5458 376.526 88.7982 376.854 88.9625L384.503 92.783C384.831 92.9454 385.107 93.1959 385.3 93.5064C385.493 93.8169 385.596 94.1749 385.596 94.5404V99.9983C385.597 100.334 385.511 100.664 385.347 100.957C385.184 101.251 384.948 101.497 384.662 101.673C384.376 101.85 384.049 101.95 383.714 101.964C383.378 101.979 383.044 101.907 382.744 101.756L378.614 99.6927C378.313 99.5413 377.978 99.4695 377.641 99.4845C377.305 99.4994 376.978 99.6004 376.691 99.7779C376.405 99.9554 376.169 100.204 376.006 100.498C375.844 100.793 375.759 101.124 375.762 101.461V116.743C375.761 117.11 375.864 117.47 376.057 117.782C376.25 118.095 376.526 118.347 376.854 118.511L382.078 121.109C382.404 121.274 382.678 121.526 382.87 121.838C383.061 122.149 383.162 122.507 383.162 122.872C383.162 123.238 383.061 123.596 382.87 123.907C382.678 124.218 382.404 124.47 382.078 124.635L376.854 127.244C376.526 127.405 376.249 127.656 376.056 127.966C375.863 128.277 375.761 128.636 375.762 129.001V144.283C375.761 144.619 375.847 144.949 376.01 145.243C376.174 145.536 376.41 145.782 376.696 145.959C376.982 146.135 377.308 146.235 377.644 146.249C377.98 146.264 378.314 146.192 378.614 146.041L382.744 143.978C383.045 143.83 383.379 143.76 383.715 143.777C384.05 143.793 384.376 143.895 384.661 144.071C384.947 144.248 385.182 144.495 385.346 144.788C385.509 145.081 385.595 145.411 385.596 145.746V175.721C385.596 176.088 385.698 176.448 385.891 176.76C386.084 177.072 386.36 177.325 386.689 177.489L402.424 185.337C402.724 185.489 403.058 185.56 403.393 185.546C403.729 185.531 404.056 185.431 404.342 185.255C404.628 185.079 404.864 184.832 405.027 184.539C405.191 184.246 405.276 183.916 405.276 183.58V171.868C405.272 171.477 405.385 171.095 405.6 170.77C405.815 170.444 406.123 170.191 406.484 170.041C406.845 169.892 407.242 169.855 407.625 169.933C408.007 170.011 408.358 170.202 408.63 170.481L423.688 185.523C424.034 185.864 424.493 186.067 424.978 186.093C425.463 186.119 425.941 185.967 426.321 185.665L442.428 172.795C442.65 172.617 442.907 172.49 443.183 172.421C443.459 172.352 443.747 172.344 444.026 172.397C444.306 172.45 444.57 172.562 444.802 172.727C445.033 172.892 445.226 173.105 445.367 173.352L462.993 204.178C463.143 204.441 463.351 204.666 463.603 204.835C463.854 205.005 464.141 205.114 464.441 205.154C464.742 205.194 465.048 205.164 465.335 205.067C465.622 204.97 465.882 204.807 466.096 204.593L473.537 197.17C473.721 196.987 473.867 196.769 473.966 196.529C474.065 196.289 474.117 196.032 474.117 195.773V162.043C474.117 161.653 474.002 161.272 473.786 160.948C473.569 160.623 473.26 160.371 472.899 160.222C472.539 160.073 472.142 160.035 471.759 160.113C471.376 160.19 471.025 160.38 470.751 160.657L466.096 165.296C465.882 165.511 465.622 165.673 465.335 165.77C465.048 165.868 464.742 165.897 464.441 165.857C464.141 165.817 463.854 165.708 463.603 165.539C463.351 165.37 463.143 165.145 462.993 164.881L460.49 160.515C460.253 160.108 460.17 159.63 460.257 159.167C460.343 158.704 460.593 158.288 460.96 157.994L473.373 148.082C473.605 147.898 473.793 147.664 473.921 147.397C474.05 147.131 474.117 146.839 474.117 146.543V122.026C474.122 121.652 474.021 121.284 473.825 120.964C473.629 120.645 473.346 120.388 473.009 120.223C472.672 120.059 472.296 119.993 471.923 120.034C471.55 120.075 471.197 120.221 470.904 120.454Z" fill="white"/>
<path d="M454.098 97.7505L438.374 74.1834C438.14 73.8313 437.799 73.5638 437.401 73.4207C437.003 73.2776 436.569 73.2666 436.164 73.3891C435.759 73.5117 435.405 73.7612 435.153 74.101C434.902 74.4407 434.766 74.8525 434.768 75.275V97.6523C434.764 98.0409 434.878 98.4215 435.095 98.7438L450.82 122.311C451.056 122.66 451.398 122.925 451.796 123.067C452.194 123.208 452.626 123.218 453.031 123.096C453.435 122.974 453.789 122.726 454.042 122.389C454.295 122.051 454.433 121.641 454.436 121.219V98.842C454.434 98.4528 454.316 98.073 454.098 97.7505Z" fill="white"/>
<path d="M680.092 176.235L671.405 167.568C671.041 167.193 670.837 166.692 670.837 166.17V148.553C670.835 148.187 670.732 147.83 670.539 147.519C670.346 147.209 670.071 146.958 669.744 146.795L662.095 142.974C661.767 142.81 661.49 142.558 661.297 142.245C661.104 141.933 661.002 141.573 661.002 141.206V135.748C661.003 135.413 661.089 135.083 661.253 134.79C661.416 134.497 661.652 134.251 661.937 134.074C662.223 133.897 662.548 133.795 662.884 133.779C663.219 133.762 663.553 133.832 663.854 133.98L667.985 136.043C668.285 136.194 668.619 136.266 668.955 136.251C669.29 136.237 669.617 136.137 669.903 135.961C670.189 135.784 670.425 135.538 670.588 135.245C670.752 134.952 670.837 134.621 670.837 134.286V119.004C670.835 118.638 670.732 118.281 670.539 117.971C670.346 117.66 670.071 117.41 669.744 117.246L662.095 113.426C661.767 113.261 661.49 113.009 661.297 112.697C661.104 112.384 661.002 112.024 661.002 111.657V99.3553C661.001 98.9901 660.898 98.6326 660.705 98.3223C660.512 98.0121 660.237 97.7613 659.91 97.5979L644.186 89.7386C643.884 89.5903 643.55 89.521 643.215 89.5374C642.88 89.5538 642.554 89.6552 642.268 89.8321C641.983 90.009 641.748 90.2556 641.584 90.5486C641.421 90.8416 641.334 91.1715 641.334 91.5069V99.8683C641.334 100.204 641.249 100.534 641.085 100.827C640.921 101.121 640.685 101.367 640.399 101.543C640.113 101.72 639.787 101.82 639.451 101.834C639.116 101.849 638.782 101.777 638.482 101.626L622.747 93.7774C622.418 93.6131 622.142 93.3607 621.949 93.0484C621.756 92.736 621.654 92.3761 621.654 92.009V79.707C621.652 79.3418 621.549 78.9843 621.356 78.674C621.163 78.3638 620.888 78.113 620.561 77.9496L604.837 70.0903C604.536 69.942 604.202 69.8727 603.866 69.8891C603.531 69.9054 603.205 70.0069 602.92 70.1838C602.635 70.3607 602.399 70.6073 602.236 70.9003C602.072 71.1933 601.986 71.5232 601.985 71.8586V80.22C601.986 80.5556 601.9 80.8859 601.736 81.1791C601.573 81.4723 601.337 81.7188 601.051 81.895C600.765 82.0713 600.439 82.1714 600.103 82.1858C599.767 82.2002 599.433 82.1286 599.133 81.9775L595.003 79.9144C594.702 79.7662 594.367 79.6969 594.032 79.7132C593.697 79.7296 593.371 79.8311 593.086 80.008C592.8 80.1849 592.565 80.4315 592.401 80.7245C592.238 81.0175 592.151 81.3473 592.151 81.6828V96.9648C592.151 97.3319 592.253 97.6917 592.446 98.004C592.639 98.3163 592.915 98.5689 593.244 98.7331L600.892 102.554C601.219 102.717 601.495 102.968 601.688 103.278C601.88 103.588 601.983 103.946 601.985 104.311V109.769C601.986 110.105 601.9 110.435 601.736 110.728C601.573 111.021 601.337 111.268 601.051 111.444C600.765 111.62 600.439 111.72 600.103 111.735C599.767 111.749 599.433 111.677 599.133 111.526L595.003 109.463C594.702 109.315 594.367 109.246 594.032 109.262C593.697 109.279 593.371 109.38 593.086 109.557C592.8 109.734 592.565 109.98 592.401 110.273C592.238 110.566 592.151 110.896 592.151 111.232V126.514C592.151 126.881 592.253 127.241 592.446 127.553C592.639 127.865 592.915 128.118 593.244 128.282L593.549 128.435C593.876 128.598 594.151 128.849 594.343 129.159C594.535 129.47 594.637 129.827 594.637 130.192C594.637 130.557 594.535 130.915 594.343 131.225C594.151 131.536 593.876 131.786 593.549 131.95L583.409 137.015C583.081 137.177 582.805 137.427 582.612 137.738C582.419 138.048 582.317 138.406 582.316 138.772V154.054C582.316 154.39 582.402 154.72 582.565 155.013C582.729 155.306 582.965 155.553 583.251 155.729C583.537 155.905 583.863 156.005 584.199 156.02C584.534 156.034 584.868 155.962 585.168 155.811L608.935 143.859C609.236 143.71 609.57 143.641 609.906 143.658C610.241 143.674 610.567 143.775 610.852 143.952C611.137 144.129 611.373 144.376 611.536 144.669C611.7 144.962 611.786 145.292 611.787 145.627V155.953C611.787 156.32 611.889 156.68 612.082 156.993C612.275 157.305 612.551 157.557 612.88 157.722L620.528 161.542C620.855 161.706 621.131 161.956 621.324 162.267C621.516 162.577 621.619 162.935 621.621 163.3V168.758C621.622 169.093 621.536 169.423 621.372 169.717C621.209 170.01 620.973 170.256 620.687 170.433C620.401 170.609 620.075 170.709 619.739 170.723C619.403 170.738 619.069 170.666 618.769 170.515L594.97 158.628C594.669 158.479 594.335 158.41 593.999 158.427C593.664 158.443 593.338 158.544 593.053 158.721C592.767 158.898 592.532 159.145 592.368 159.438C592.205 159.731 592.119 160.061 592.118 160.396V175.678C592.118 176.045 592.22 176.405 592.413 176.717C592.606 177.03 592.882 177.282 593.211 177.446L667.952 214.767C668.252 214.918 668.586 214.99 668.922 214.976C669.257 214.961 669.584 214.861 669.87 214.685C670.156 214.509 670.392 214.262 670.555 213.969C670.719 213.676 670.805 213.346 670.804 213.01V197.728C670.802 197.363 670.699 197.005 670.506 196.695C670.314 196.385 670.038 196.134 669.711 195.97L642.394 182.326C642.065 182.161 641.789 181.909 641.596 181.597C641.403 181.284 641.301 180.924 641.301 180.557V175.1C641.302 174.764 641.388 174.434 641.551 174.141C641.715 173.848 641.95 173.602 642.236 173.425C642.521 173.248 642.847 173.147 643.182 173.13C643.518 173.114 643.852 173.183 644.153 173.331L648.283 175.394C648.583 175.545 648.917 175.617 649.253 175.603C649.589 175.588 649.915 175.488 650.201 175.312C650.487 175.136 650.723 174.889 650.887 174.596C651.05 174.303 651.136 173.973 651.135 173.637V171.748C651.137 171.361 651.252 170.982 651.469 170.66C651.685 170.338 651.992 170.087 652.35 169.939C652.709 169.791 653.103 169.752 653.484 169.827C653.865 169.902 654.215 170.089 654.49 170.362L677.273 193.111C677.548 193.389 677.9 193.578 678.284 193.655C678.667 193.732 679.065 193.694 679.426 193.544C679.788 193.394 680.096 193.139 680.312 192.813C680.528 192.487 680.642 192.104 680.638 191.713V177.643C680.65 177.12 680.454 176.613 680.092 176.235ZM641.334 151.554C641.334 151.89 641.249 152.22 641.085 152.513C640.921 152.807 640.685 153.053 640.399 153.229C640.113 153.406 639.787 153.506 639.451 153.52C639.116 153.534 638.782 153.463 638.482 153.312L622.747 145.452C622.418 145.291 622.142 145.041 621.948 144.73C621.755 144.419 621.653 144.061 621.654 143.695V138.237C621.654 137.901 621.739 137.571 621.903 137.278C622.066 136.985 622.302 136.738 622.588 136.562C622.874 136.386 623.201 136.286 623.536 136.271C623.872 136.257 624.206 136.329 624.506 136.48L640.23 144.339C640.558 144.501 640.834 144.752 641.027 145.063C641.22 145.373 641.322 145.731 641.323 146.097L641.334 151.554ZM641.334 129.417C641.334 129.753 641.249 130.083 641.085 130.376C640.921 130.67 640.685 130.916 640.399 131.092C640.113 131.269 639.787 131.369 639.451 131.383C639.116 131.397 638.782 131.326 638.482 131.175L622.747 123.326C622.418 123.162 622.142 122.91 621.949 122.597C621.756 122.285 621.654 121.925 621.654 121.558V116.1C621.655 115.765 621.741 115.435 621.904 115.142C622.068 114.849 622.303 114.602 622.589 114.425C622.874 114.248 623.2 114.147 623.535 114.131C623.871 114.114 624.205 114.183 624.506 114.332L640.23 122.191C640.557 122.354 640.832 122.605 641.025 122.915C641.218 123.226 641.321 123.583 641.323 123.948L641.334 129.417Z" fill="white"/>
<path d="M798.64 166.781V140.464C798.64 140.095 798.538 139.734 798.345 139.42C798.152 139.106 797.876 138.851 797.548 138.684L783.965 132.135L773.945 127.223C773.617 127.061 773.34 126.811 773.147 126.5C772.954 126.19 772.852 125.831 772.853 125.465V96.9207C772.851 96.5731 772.759 96.2319 772.584 95.9312C772.41 95.6305 772.159 95.3808 771.858 95.207L758.593 87.6423C758.294 87.4698 757.954 87.379 757.609 87.3791C757.263 87.3791 756.924 87.47 756.625 87.6426C756.326 87.8152 756.078 88.0634 755.905 88.3623C755.733 88.6612 755.642 89.0003 755.642 89.3453V115.074C755.644 115.409 755.559 115.739 755.397 116.032C755.235 116.325 755 116.572 754.716 116.749C754.431 116.927 754.106 117.028 753.77 117.044C753.435 117.061 753.102 116.991 752.801 116.842L750.616 115.75C750.288 115.585 750.012 115.332 749.82 115.02C749.627 114.708 749.524 114.349 749.523 113.982V96.9754C749.523 96.6099 749.42 96.2518 749.227 95.9413C749.034 95.6309 748.758 95.3802 748.43 95.2178L732.706 87.3585C732.406 87.2075 732.072 87.1357 731.737 87.1501C731.401 87.1646 731.075 87.2646 730.789 87.4409C730.503 87.6171 730.267 87.8636 730.103 88.1568C729.939 88.4501 729.854 88.7803 729.854 89.1159V112.225C729.855 112.56 729.769 112.89 729.606 113.184C729.442 113.477 729.206 113.723 728.92 113.9C728.634 114.076 728.308 114.176 727.972 114.19C727.636 114.205 727.302 114.133 727.002 113.982L721.102 111.035C720.773 110.873 720.497 110.623 720.303 110.312C720.11 110.002 720.008 109.643 720.009 109.277V77.327C720.009 76.9616 719.906 76.6035 719.713 76.293C719.52 75.9826 719.244 75.7319 718.916 75.5695L703.192 67.7102C702.892 67.5592 702.558 67.4874 702.223 67.5018C701.887 67.5162 701.56 67.6163 701.274 67.7926C700.989 67.9688 700.753 68.2153 700.589 68.5085C700.425 68.8017 700.34 69.132 700.34 69.4676V97.4884C700.341 97.824 700.255 98.1543 700.092 98.4475C699.928 98.7407 699.692 98.9872 699.406 99.1634C699.12 99.3397 698.794 99.4398 698.458 99.4542C698.122 99.4686 697.788 99.3968 697.488 99.2458L693.358 97.1827C693.058 97.0316 692.724 96.9599 692.388 96.9743C692.053 96.9887 691.726 97.0888 691.44 97.265C691.154 97.4413 690.918 97.6877 690.755 97.981C690.591 98.2742 690.505 98.6044 690.506 98.9401V114.222C690.505 114.588 690.607 114.947 690.8 115.257C690.993 115.568 691.27 115.818 691.599 115.98L699.248 119.811C699.575 119.973 699.851 120.224 700.044 120.534C700.237 120.845 700.34 121.203 700.34 121.568V156.499C700.341 156.834 700.255 157.165 700.092 157.458C699.928 157.751 699.692 157.998 699.406 158.174C699.12 158.35 698.794 158.45 698.458 158.465C698.122 158.479 697.788 158.407 697.488 158.256L693.358 156.193C693.058 156.042 692.724 155.97 692.388 155.985C692.053 155.999 691.726 156.099 691.44 156.276C691.154 156.452 690.918 156.698 690.755 156.991C690.591 157.285 690.505 157.615 690.506 157.951V173.233C690.505 173.598 690.607 173.957 690.8 174.268C690.993 174.578 691.27 174.829 691.599 174.99L727.002 192.673C727.302 192.825 727.636 192.896 727.972 192.882C728.308 192.867 728.634 192.767 728.92 192.591C729.206 192.415 729.442 192.168 729.606 191.875C729.769 191.582 729.855 191.252 729.854 190.916V175.634C729.854 175.269 729.751 174.91 729.558 174.6C729.365 174.29 729.089 174.039 728.762 173.877L721.113 170.045C720.784 169.884 720.508 169.634 720.314 169.323C720.121 169.012 720.019 168.654 720.02 168.288V133.357C720.019 133.022 720.105 132.692 720.269 132.398C720.432 132.105 720.668 131.859 720.954 131.682C721.24 131.506 721.567 131.406 721.902 131.392C722.238 131.377 722.572 131.449 722.872 131.6L728.762 134.547C729.089 134.71 729.365 134.96 729.558 135.271C729.751 135.581 729.854 135.939 729.854 136.305V173.244C729.854 173.589 729.945 173.928 730.118 174.227C730.29 174.526 730.539 174.774 730.838 174.946L781.43 203.895L795.69 212.038C795.989 212.21 796.328 212.301 796.674 212.301C797.019 212.301 797.359 212.21 797.658 212.038C797.957 211.865 798.205 211.617 798.377 211.318C798.55 211.019 798.641 210.68 798.64 210.335V185.338C798.639 184.991 798.547 184.649 798.372 184.349C798.198 184.048 797.947 183.798 797.646 183.624L784.37 176.06C784.071 175.89 783.733 175.801 783.389 175.803C783.045 175.804 782.708 175.896 782.41 176.068C782.113 176.24 781.866 176.487 781.694 176.785C781.522 177.082 781.431 177.419 781.43 177.763V180.808C781.43 181.153 781.34 181.492 781.167 181.791C780.995 182.09 780.746 182.338 780.447 182.511C780.148 182.683 779.809 182.774 779.464 182.774C779.118 182.774 778.779 182.684 778.48 182.511L750.452 166.519C750.151 166.346 749.902 166.096 749.729 165.795C749.556 165.494 749.466 165.153 749.468 164.806V138.029C749.468 137.696 749.553 137.368 749.714 137.076C749.876 136.784 750.109 136.538 750.392 136.361C750.675 136.184 750.999 136.082 751.333 136.064C751.666 136.047 751.999 136.115 752.299 136.261L754.484 137.353C754.813 137.516 755.09 137.768 755.284 138.081C755.477 138.393 755.578 138.754 755.577 139.121V153.595C755.579 153.941 755.672 154.281 755.846 154.579C756.021 154.878 756.271 155.126 756.571 155.298L769.837 162.874C770.136 163.046 770.475 163.137 770.82 163.137C771.166 163.137 771.505 163.046 771.804 162.873C772.103 162.701 772.351 162.452 772.524 162.154C772.696 161.855 772.787 161.516 772.787 161.171V149.469C772.788 149.135 772.875 148.807 773.038 148.515C773.201 148.224 773.435 147.978 773.719 147.801C774.003 147.625 774.327 147.523 774.66 147.505C774.994 147.488 775.327 147.555 775.628 147.701L780.294 149.982C780.621 150.148 780.896 150.401 781.089 150.713C781.281 151.025 781.384 151.384 781.387 151.75V159.217C781.386 159.563 781.476 159.904 781.648 160.205C781.821 160.506 782.07 160.756 782.37 160.931L795.646 168.495C795.947 168.679 796.292 168.779 796.645 168.784C796.998 168.79 797.346 168.7 797.652 168.525C797.958 168.349 798.211 168.095 798.385 167.788C798.559 167.482 798.647 167.134 798.64 166.781Z" fill="white"/>
<path d="M796.269 226.457H4.73143C2.11834 226.457 0 228.573 0 231.184V255.22C0 257.83 2.11834 259.946 4.73143 259.946H796.269C798.882 259.946 801 257.83 801 255.22V231.184C801 228.573 798.882 226.457 796.269 226.457Z" fill="white"/>
<path d="M17.6034 0H34.3765L50.483 48.3021H36.0046L33.098 37.9212H18.7835L15.9315 48.3021H1.45312L17.6034 0ZM30.1914 27.1365L25.9954 11.7781L21.7994 27.1911L30.1914 27.1365Z" fill="white"/>
<path d="M91.6793 48.1931C86.3141 48.2477 81.7247 48.3023 76.0754 48.3023H72.2181C65.1264 48.3023 61.8265 47.8547 59.3132 46.523C56.1225 44.842 55.1172 41.2071 55.1172 31.3284C55.1172 21.4496 55.8384 17.7601 58.3953 15.5224C60.3513 13.7868 63.2579 13.1209 68.787 13.1209H71.3658C72.983 13.1209 75.6055 13.1209 78.9055 13.1209V1.27734H91.712L91.6793 48.1931ZM78.8727 24.8771C75.2996 24.7571 74.1194 24.7571 71.9449 24.7571C67.3009 24.7571 67.0824 25.0954 67.0824 32.0706C67.0824 35.9893 67.585 36.546 71.4532 36.546H71.781C71.9558 36.546 72.5678 36.546 73.5185 36.546L76.4797 36.4915L78.8836 36.4259L78.8727 24.8771Z" fill="white"/>
<path d="M99.1085 28.8179C98.8244 15.5771 101.064 13.2848 114.767 13.1211H116.548C127.617 13.1211 130.305 13.7324 132.939 16.2539C134.96 18.437 135.408 20.6202 135.463 28.5887V32.4965C135.463 40.203 134.676 43.4996 132.436 45.5954C130.196 47.6912 126.623 48.3243 116.614 48.3243C107.785 48.3243 104.769 47.7676 102.409 45.7045C100.048 43.6414 99.1304 40.6724 99.1304 33.4134L99.1085 28.8179ZM116.275 23.9605C110.91 23.895 110.91 23.9604 110.811 29.1999V31.8307C110.811 37.354 110.986 37.5287 116.69 37.5287C123.618 37.5287 123.847 37.354 123.847 32.4965V29.1454C123.847 24.2879 123.509 23.9605 118.384 23.9605H116.275Z" fill="white"/>
<path fill-rule="evenodd" clip-rule="evenodd" d="M169.874 14.2715C164.977 14.2715 160.67 15.4653 158.016 17.4001L158.008 17.406C154.209 20.1378 152.186 24.7277 152.186 31.7103C152.186 36.6057 153.14 39.8248 154.869 41.9545C155.815 43.0806 157 43.9824 158.338 44.5944C159.68 45.2079 161.142 45.5147 162.617 45.4925L162.687 45.4914L162.757 45.4969C164.296 45.6179 165.821 45.1383 167.012 44.1607C167.508 43.6519 167.858 43.0545 168.57 40.9089L169.456 38.2398C170.663 33.9007 171.514 29.47 171.999 24.9918C171.999 24.9907 171.999 24.9896 171.999 24.9884L172.297 22.1037L172.321 22.0236C172.327 21.9836 172.336 21.9235 172.348 21.8364C172.36 21.7393 172.373 21.6361 172.389 21.5162C172.403 21.4008 172.42 21.2701 172.44 21.1145L172.646 19.5258L174.218 19.8359C175.987 20.1849 177.323 21.2241 178.162 22.8363C178.961 24.3715 179.285 26.3685 179.285 28.6975C179.285 30.7794 179.067 32.6496 178.714 34.1944C178.37 35.7052 177.87 37.0207 177.23 37.9054C175.984 39.6276 174.288 40.2416 171.489 40.7295L171.527 46.3168C176.012 46.0034 178.477 45.1086 180.819 43.2392C183.996 40.6315 185.726 36.4712 185.726 30.062C185.726 24.438 184.543 20.8784 182.006 18.4092C179.412 15.8855 174.915 14.2715 169.874 14.2715ZM172.792 37.3763C173.984 37.0361 174.425 36.664 174.799 36.147C175.099 35.7327 175.484 34.8651 175.79 33.5269C176.087 32.2226 176.285 30.578 176.285 28.6975C176.285 26.5838 175.98 25.1423 175.501 24.2215C175.394 24.0156 175.277 23.8341 175.151 23.675L174.982 25.3113C174.541 29.3811 173.809 33.413 172.792 37.3763ZM156.253 14.9731C159.587 12.5436 164.588 11.2715 169.874 11.2715C175.453 11.2715 180.791 13.0412 184.098 16.2591C187.461 19.5316 188.726 24.0498 188.726 30.062C188.726 37.0088 186.831 42.191 182.713 45.5654L182.706 45.5713L182.699 45.577C179.398 48.2145 175.919 49.1725 170.095 49.3971L168.548 49.4568L168.53 46.7788C166.821 48.032 164.718 48.6431 162.593 48.493C160.696 48.5115 158.817 48.1121 157.091 47.3227C155.343 46.5237 153.797 45.3453 152.563 43.8734L152.556 43.8651L152.549 43.8567C150.196 40.9651 149.186 36.9382 149.186 31.7103C149.186 24.1552 151.401 18.4637 156.253 14.9731ZM166.886 19.1395L166.562 21.4302C165.9 26.1117 164.985 31.996 164.649 33.4599C164.172 35.6112 163.873 36.9483 163.591 37.7198C163.452 38.0968 163.232 38.5989 162.795 38.9689C162.269 39.413 161.698 39.454 161.383 39.454H161.232L161.085 39.424C160.602 39.326 160.147 39.1223 159.752 38.8273C159.357 38.5323 159.032 38.1534 158.801 37.7179L158.795 37.7056C157.865 35.9127 157.451 33.8983 157.597 31.8857C157.459 28.879 158.151 25.8916 159.598 23.2503L160.913 23.971L159.643 23.1729C160.19 22.303 160.79 21.6007 161.653 21.0319C162.48 20.4871 163.462 20.1235 164.662 19.7786L166.886 19.1395ZM162.207 24.7317C161.026 26.9041 160.469 29.36 160.597 31.829L160.603 31.9289L160.594 32.0287C160.497 33.2224 160.671 34.4189 161.1 35.5296C161.254 34.8988 161.451 34.0243 161.722 32.8044L161.724 32.7926C161.97 31.7251 162.622 27.6488 163.218 23.5957C162.861 23.8481 162.561 24.174 162.207 24.7317Z" fill="white"/>
<path d="M796.268 46.8069H202.839C202.088 46.8037 201.348 46.6228 200.681 46.2791C200.014 45.9353 199.437 45.4385 198.999 44.8293C198.561 44.2201 198.273 43.5159 198.16 42.7744C198.047 42.0328 198.111 41.275 198.348 40.5631C200.383 34.2275 200.337 27.408 198.217 21.1004C197.976 20.3895 197.908 19.6317 198.018 18.8894C198.128 18.1471 198.413 17.4415 198.849 16.8307C199.286 16.2199 199.861 15.7214 200.528 15.3763C201.195 15.0312 201.935 14.8494 202.686 14.8457H796.268C797.523 14.8457 798.726 15.3436 799.613 16.23C800.501 17.1164 800.999 18.3186 800.999 19.5722V42.0695C801.001 42.6911 800.879 43.3068 800.642 43.8815C800.405 44.4562 800.057 44.9786 799.617 45.4187C799.178 45.8587 798.656 46.2078 798.081 46.446C797.506 46.6842 796.89 46.8069 796.268 46.8069Z" fill="white"/>
<path d="M234.77 233.128C244.189 232.789 246.866 239.524 246.866 243.476C246.866 245.888 245.576 253.649 234.715 253.649H229.109V233.368L234.77 233.128ZM234.77 248.639C240.911 248.224 240.911 243.847 240.911 243.181C240.924 242.442 240.78 241.709 240.485 241.031C240.191 240.353 239.755 239.746 239.206 239.251C237.942 238.269 236.37 237.766 234.77 237.832V248.639Z" fill="black"/>
<path d="M269.332 243.639C269.332 248.169 266.425 254.195 259.366 254.195C257.949 254.232 256.539 253.978 255.224 253.447C253.91 252.916 252.719 252.12 251.725 251.11C250.732 250.099 249.957 248.895 249.45 247.572C248.943 246.249 248.714 244.836 248.778 243.421C248.778 236.872 253.149 232.789 259.006 232.789C266.218 232.789 269.332 238.891 269.332 243.639ZM254.154 242.111C254.154 247.121 257.902 249.665 260 249.665C261.595 249.665 263.278 248.06 263.278 244.785C263.278 241.511 261.41 237.352 257.815 237.352C254.515 237.352 254.154 240.594 254.154 242.1V242.111Z" fill="black"/>
<path d="M281.712 233.367L288.061 233.16L283.132 242.46C284.149 243.552 286.99 246.335 289.689 253.682H283.132C281.504 248.595 279.854 246.39 277.363 244.632V253.682H271.725V233.367L277.363 233.16V241.783L281.712 233.367Z" fill="black"/>
<path d="M297.316 253.649H291.678V233.367L297.316 233.16V253.649Z" fill="black"/>
<path d="M314.887 233.128C324.306 232.789 326.972 239.524 326.972 243.476C326.972 245.888 325.694 253.649 314.832 253.649H309.227V233.368L314.887 233.128ZM314.832 248.639C320.973 248.224 320.973 243.847 320.973 243.181C320.987 242.442 320.842 241.709 320.548 241.031C320.254 240.353 319.818 239.746 319.269 239.251C318.004 238.269 316.432 237.766 314.832 237.832V248.639Z" fill="black"/>
<path d="M349.449 243.639C349.449 248.169 346.542 254.195 339.483 254.195C338.066 254.232 336.656 253.978 335.341 253.447C334.027 252.916 332.836 252.12 331.842 251.11C330.849 250.099 330.075 248.895 329.568 247.572C329.061 246.249 328.832 244.836 328.895 243.421C328.895 236.872 333.266 232.789 339.123 232.789C346.335 232.789 349.449 238.891 349.449 243.639ZM334.271 242.111C334.271 247.121 338.019 249.665 340.117 249.665C341.713 249.665 343.395 248.06 343.395 244.785C343.395 241.511 341.527 237.352 337.932 237.352C334.632 237.352 334.271 240.594 334.271 242.1V242.111Z" fill="black"/>
<path d="M361.829 233.367L368.178 233.16L363.206 242.428C364.222 243.519 367.052 246.303 369.762 253.649H363.206C361.578 248.562 359.928 246.357 357.425 244.6V253.649H351.787V233.367L357.425 233.16V241.784L361.829 233.367Z" fill="black"/>
<path d="M377.411 253.649H371.795V233.367L377.433 233.16L377.411 253.649Z" fill="black"/>
<path d="M401.506 238.759C399.898 238.228 398.239 237.862 396.556 237.667C395.376 237.667 394.688 238.322 394.688 238.759C394.688 239.436 395.376 239.752 398.654 241.248C401.408 242.481 403.844 243.682 403.844 247.033C403.85 248.974 403.107 250.843 401.768 252.251C400.359 253.746 398.993 254.139 396.37 254.139C393.59 254.158 390.817 253.851 388.109 253.222L389.257 247.557C391.412 248.235 393.644 248.642 395.9 248.769C396.895 248.769 397.518 248.376 397.518 247.677C397.518 247.208 397.212 246.684 395.977 246.105C391.071 243.846 390.601 243.638 389.738 242.831C389.335 242.456 389.013 242.003 388.792 241.5C388.57 240.997 388.453 240.455 388.448 239.905C388.448 237.384 390.098 232.723 396.84 232.723C399.094 232.74 401.335 233.056 403.506 233.661L401.506 238.759Z" fill="black"/>
<path d="M420.158 240.91V245.68H411.996V249.053L421.415 248.77L421.098 253.594H406.357V233.367L421.098 233.16L421.415 237.876L411.996 237.93V241.205L420.158 240.91Z" fill="black"/>
<path d="M437.673 239.753C436.044 238.66 434.165 237.995 432.21 237.821C429.686 237.821 428.932 240.539 428.932 242.187C428.895 243.14 429.133 244.084 429.618 244.906C430.102 245.729 430.812 246.395 431.663 246.826C433.432 247.639 435.355 248.06 437.302 248.06C438.299 248.04 439.295 247.967 440.285 247.841L436.668 254.162C434.168 253.991 431.719 253.378 429.434 252.35C427.586 251.487 426.021 250.118 424.921 248.402C423.82 246.686 423.229 244.694 423.217 242.657C423.217 236.926 427.697 232.756 433.816 232.756C436.137 232.797 438.416 233.381 440.471 234.459L437.673 239.753Z" fill="black"/>
<path d="M448.436 233.128C450.425 233.068 452.415 233.192 454.381 233.499C456.457 233.99 459.735 235.409 459.735 239.317C459.744 240.54 459.372 241.736 458.671 242.739C457.971 243.742 456.975 244.503 455.823 244.917L460.576 253.649H453.9L448.436 243.945V253.649H442.787V233.368L448.436 233.128ZM448.436 243.847C451.813 242.755 453.386 241.664 453.386 239.863C453.386 238.924 452.632 237.68 450.218 237.68C449.693 237.68 449.125 237.68 448.436 237.756V243.847Z" fill="black"/>
<path d="M476.487 240.91V245.68H468.325V249.053L477.744 248.77L477.427 253.594H462.643V233.367L477.383 233.16L477.7 237.876L468.281 237.93V241.205L476.487 240.91Z" fill="black"/>
<path d="M490.56 253.649H484.955V238.29H479.152V233.313L496.122 233.105L496.308 238.247H490.506L490.56 253.649Z" fill="black"/>
<path d="M512.906 233.127C514.833 233.054 516.762 233.204 518.654 233.575C522.85 234.666 523.342 237.428 523.342 238.269C523.342 239.6 522.642 240.932 520.381 242.635C521.244 243.126 523.768 244.621 523.768 247.394C523.768 249.151 522.511 251.695 518.84 252.852C516.9 253.349 514.909 253.617 512.906 253.649H507.301V233.367L512.906 233.127ZM512.906 241.325C514.556 240.888 516.786 240.31 516.786 238.869C516.786 237.428 514.272 237.352 512.906 237.297V241.325ZM512.906 249.217C515.605 248.824 517.441 247.776 517.441 246.521C517.441 245.266 515.376 245.211 512.906 245.124V249.217Z" fill="black"/>
<path d="M532.085 250.211L530.992 253.649H525.223L532.358 233.728L538.313 232.789L545.962 253.649H539.515L538.423 250.156L532.085 250.211ZM537.035 245.517L535.276 239.786L533.473 245.648L537.035 245.517Z" fill="black"/>
<path d="M560.298 238.759C558.686 238.227 557.024 237.861 555.337 237.667C554.157 237.667 553.48 238.322 553.48 238.759C553.48 239.436 554.157 239.752 557.435 241.248C560.189 242.481 562.637 243.682 562.637 247.033C562.642 248.974 561.899 250.843 560.56 252.251C559.14 253.746 557.785 254.139 555.162 254.139C552.379 254.158 549.602 253.85 546.891 253.222L548.049 247.557C550.201 248.234 552.429 248.641 554.682 248.769C555.676 248.769 556.31 248.376 556.31 247.677C556.31 247.208 555.993 246.684 554.758 246.105C549.863 243.846 549.382 243.638 548.519 242.831C548.118 242.455 547.798 242.002 547.578 241.499C547.358 240.996 547.243 240.454 547.24 239.905C547.24 237.384 548.89 232.723 555.632 232.723C557.882 232.739 560.12 233.055 562.287 233.661L560.298 238.759Z" fill="black"/>
<path d="M578.94 240.91V245.68H570.789V249.053L580.197 248.77L579.891 253.594H565.15V233.367L579.891 233.16L580.197 237.876L570.789 237.93V241.205L578.94 240.91Z" fill="black"/>
<path d="M227.461 271.855L222.82 286H219.082L225.422 268.938H227.801L227.461 271.855ZM231.316 286L226.664 271.855L226.289 268.938H228.691L235.066 286H231.316ZM231.105 279.648V282.402H222.094V279.648H231.105Z" fill="white"/>
<path d="M246.326 283.234V268H249.724V286H246.666L246.326 283.234ZM238.31 279.812V279.566C238.31 278.598 238.42 277.719 238.638 276.93C238.857 276.133 239.177 275.449 239.599 274.879C240.021 274.309 240.541 273.867 241.158 273.555C241.775 273.242 242.478 273.086 243.267 273.086C244.009 273.086 244.658 273.242 245.212 273.555C245.775 273.867 246.252 274.312 246.642 274.891C247.041 275.461 247.361 276.137 247.603 276.918C247.845 277.691 248.021 278.539 248.13 279.461V280C248.021 280.883 247.845 281.703 247.603 282.461C247.361 283.219 247.041 283.883 246.642 284.453C246.252 285.016 245.775 285.453 245.212 285.766C244.65 286.078 243.994 286.234 243.244 286.234C242.455 286.234 241.752 286.074 241.134 285.754C240.525 285.434 240.009 284.984 239.587 284.406C239.173 283.828 238.857 283.148 238.638 282.367C238.42 281.586 238.31 280.734 238.31 279.812ZM241.685 279.566V279.812C241.685 280.336 241.724 280.824 241.802 281.277C241.888 281.73 242.025 282.133 242.212 282.484C242.408 282.828 242.658 283.098 242.962 283.293C243.275 283.48 243.654 283.574 244.099 283.574C244.677 283.574 245.154 283.445 245.529 283.188C245.904 282.922 246.189 282.559 246.384 282.098C246.587 281.637 246.705 281.105 246.736 280.504V278.969C246.712 278.477 246.642 278.035 246.525 277.645C246.416 277.246 246.252 276.906 246.033 276.625C245.822 276.344 245.556 276.125 245.236 275.969C244.923 275.812 244.552 275.734 244.123 275.734C243.685 275.734 243.31 275.836 242.998 276.039C242.685 276.234 242.431 276.504 242.236 276.848C242.048 277.191 241.908 277.598 241.814 278.066C241.728 278.527 241.685 279.027 241.685 279.566Z" fill="white"/>
<path d="M254.222 279.789V279.543C254.222 278.613 254.355 277.758 254.62 276.977C254.886 276.188 255.273 275.504 255.78 274.926C256.288 274.348 256.913 273.898 257.655 273.578C258.398 273.25 259.249 273.086 260.21 273.086C261.171 273.086 262.027 273.25 262.777 273.578C263.527 273.898 264.155 274.348 264.663 274.926C265.179 275.504 265.57 276.188 265.835 276.977C266.101 277.758 266.234 278.613 266.234 279.543V279.789C266.234 280.711 266.101 281.566 265.835 282.355C265.57 283.137 265.179 283.82 264.663 284.406C264.155 284.984 263.53 285.434 262.788 285.754C262.046 286.074 261.195 286.234 260.234 286.234C259.273 286.234 258.417 286.074 257.667 285.754C256.925 285.434 256.296 284.984 255.78 284.406C255.273 283.82 254.886 283.137 254.62 282.355C254.355 281.566 254.222 280.711 254.222 279.789ZM257.597 279.543V279.789C257.597 280.32 257.644 280.816 257.737 281.277C257.831 281.738 257.98 282.145 258.183 282.496C258.394 282.84 258.667 283.109 259.003 283.305C259.339 283.5 259.749 283.598 260.234 283.598C260.702 283.598 261.105 283.5 261.441 283.305C261.777 283.109 262.046 282.84 262.249 282.496C262.452 282.145 262.601 281.738 262.695 281.277C262.796 280.816 262.847 280.32 262.847 279.789V279.543C262.847 279.027 262.796 278.543 262.695 278.09C262.601 277.629 262.448 277.223 262.237 276.871C262.034 276.512 261.765 276.23 261.429 276.027C261.093 275.824 260.687 275.723 260.21 275.723C259.734 275.723 259.327 275.824 258.991 276.027C258.663 276.23 258.394 276.512 258.183 276.871C257.98 277.223 257.831 277.629 257.737 278.09C257.644 278.543 257.597 279.027 257.597 279.543Z" fill="white"/>
<path d="M288.178 281.535C288.178 281.23 288.131 280.957 288.037 280.715C287.952 280.465 287.787 280.238 287.545 280.035C287.303 279.824 286.963 279.617 286.526 279.414C286.088 279.211 285.522 279 284.827 278.781C284.053 278.531 283.319 278.25 282.623 277.938C281.936 277.625 281.327 277.262 280.795 276.848C280.272 276.426 279.858 275.938 279.553 275.383C279.256 274.828 279.108 274.184 279.108 273.449C279.108 272.738 279.264 272.094 279.577 271.516C279.889 270.93 280.327 270.43 280.889 270.016C281.452 269.594 282.116 269.27 282.881 269.043C283.655 268.816 284.502 268.703 285.424 268.703C286.682 268.703 287.78 268.93 288.717 269.383C289.655 269.836 290.381 270.457 290.897 271.246C291.42 272.035 291.682 272.938 291.682 273.953H288.19C288.19 273.453 288.084 273.016 287.873 272.641C287.67 272.258 287.358 271.957 286.936 271.738C286.522 271.52 285.998 271.41 285.366 271.41C284.756 271.41 284.248 271.504 283.842 271.691C283.436 271.871 283.131 272.117 282.928 272.43C282.725 272.734 282.623 273.078 282.623 273.461C282.623 273.75 282.694 274.012 282.834 274.246C282.983 274.48 283.202 274.699 283.491 274.902C283.78 275.105 284.135 275.297 284.557 275.477C284.979 275.656 285.467 275.832 286.022 276.004C286.952 276.285 287.768 276.602 288.471 276.953C289.182 277.305 289.776 277.699 290.252 278.137C290.729 278.574 291.088 279.07 291.33 279.625C291.573 280.18 291.694 280.809 291.694 281.512C291.694 282.254 291.549 282.918 291.26 283.504C290.971 284.09 290.553 284.586 290.006 284.992C289.459 285.398 288.807 285.707 288.049 285.918C287.291 286.129 286.444 286.234 285.506 286.234C284.662 286.234 283.83 286.125 283.01 285.906C282.19 285.68 281.444 285.34 280.772 284.887C280.108 284.434 279.577 283.855 279.178 283.152C278.78 282.449 278.58 281.617 278.58 280.656H282.108C282.108 281.188 282.19 281.637 282.354 282.004C282.518 282.371 282.748 282.668 283.045 282.895C283.35 283.121 283.709 283.285 284.123 283.387C284.545 283.488 285.006 283.539 285.506 283.539C286.116 283.539 286.616 283.453 287.006 283.281C287.405 283.109 287.698 282.871 287.885 282.566C288.08 282.262 288.178 281.918 288.178 281.535Z" fill="white"/>
<path d="M302.109 286.234C301.125 286.234 300.242 286.078 299.461 285.766C298.68 285.445 298.016 285.004 297.469 284.441C296.93 283.879 296.516 283.227 296.227 282.484C295.938 281.734 295.793 280.938 295.793 280.094V279.625C295.793 278.664 295.93 277.785 296.203 276.988C296.477 276.191 296.867 275.5 297.375 274.914C297.891 274.328 298.516 273.879 299.25 273.566C299.984 273.246 300.812 273.086 301.734 273.086C302.633 273.086 303.43 273.234 304.125 273.531C304.82 273.828 305.402 274.25 305.871 274.797C306.348 275.344 306.707 276 306.949 276.766C307.191 277.523 307.312 278.367 307.312 279.297V280.703H297.234V278.453H303.996V278.195C303.996 277.727 303.91 277.309 303.738 276.941C303.574 276.566 303.324 276.27 302.988 276.051C302.652 275.832 302.223 275.723 301.699 275.723C301.254 275.723 300.871 275.82 300.551 276.016C300.23 276.211 299.969 276.484 299.766 276.836C299.57 277.188 299.422 277.602 299.32 278.078C299.227 278.547 299.18 279.062 299.18 279.625V280.094C299.18 280.602 299.25 281.07 299.391 281.5C299.539 281.93 299.746 282.301 300.012 282.613C300.285 282.926 300.613 283.168 300.996 283.34C301.387 283.512 301.828 283.598 302.32 283.598C302.93 283.598 303.496 283.48 304.02 283.246C304.551 283.004 305.008 282.641 305.391 282.156L307.031 283.938C306.766 284.32 306.402 284.688 305.941 285.039C305.488 285.391 304.941 285.68 304.301 285.906C303.66 286.125 302.93 286.234 302.109 286.234Z" fill="white"/>
<path d="M316.873 283.598C317.287 283.598 317.654 283.52 317.974 283.363C318.295 283.199 318.545 282.973 318.724 282.684C318.912 282.387 319.009 282.039 319.017 281.641H322.193C322.185 282.531 321.947 283.324 321.478 284.02C321.009 284.707 320.38 285.25 319.591 285.648C318.802 286.039 317.92 286.234 316.943 286.234C315.959 286.234 315.099 286.07 314.365 285.742C313.638 285.414 313.033 284.961 312.548 284.383C312.064 283.797 311.701 283.117 311.459 282.344C311.216 281.562 311.095 280.727 311.095 279.836V279.496C311.095 278.598 311.216 277.762 311.459 276.988C311.701 276.207 312.064 275.527 312.548 274.949C313.033 274.363 313.638 273.906 314.365 273.578C315.091 273.25 315.943 273.086 316.92 273.086C317.959 273.086 318.869 273.285 319.65 273.684C320.439 274.082 321.056 274.652 321.502 275.395C321.955 276.129 322.185 277 322.193 278.008H319.017C319.009 277.586 318.92 277.203 318.748 276.859C318.584 276.516 318.341 276.242 318.021 276.039C317.709 275.828 317.322 275.723 316.861 275.723C316.369 275.723 315.966 275.828 315.654 276.039C315.341 276.242 315.099 276.523 314.927 276.883C314.755 277.234 314.634 277.637 314.564 278.09C314.502 278.535 314.47 279.004 314.47 279.496V279.836C314.47 280.328 314.502 280.801 314.564 281.254C314.627 281.707 314.744 282.109 314.916 282.461C315.095 282.812 315.341 283.09 315.654 283.293C315.966 283.496 316.373 283.598 316.873 283.598Z" fill="white"/>
<path d="M329.925 276.086V286H326.55V273.32H329.726L329.925 276.086ZM333.745 273.238L333.687 276.367C333.523 276.344 333.323 276.324 333.089 276.309C332.863 276.285 332.655 276.273 332.468 276.273C331.991 276.273 331.577 276.336 331.226 276.461C330.882 276.578 330.593 276.754 330.359 276.988C330.132 277.223 329.96 277.508 329.843 277.844C329.734 278.18 329.671 278.562 329.655 278.992L328.976 278.781C328.976 277.961 329.058 277.207 329.222 276.52C329.386 275.824 329.624 275.219 329.937 274.703C330.257 274.188 330.648 273.789 331.109 273.508C331.57 273.227 332.097 273.086 332.691 273.086C332.878 273.086 333.07 273.102 333.265 273.133C333.46 273.156 333.62 273.191 333.745 273.238Z" fill="white"/>
<path d="M343.341 286.234C342.356 286.234 341.473 286.078 340.692 285.766C339.911 285.445 339.247 285.004 338.7 284.441C338.161 283.879 337.747 283.227 337.458 282.484C337.169 281.734 337.024 280.938 337.024 280.094V279.625C337.024 278.664 337.161 277.785 337.434 276.988C337.708 276.191 338.098 275.5 338.606 274.914C339.122 274.328 339.747 273.879 340.481 273.566C341.216 273.246 342.044 273.086 342.966 273.086C343.864 273.086 344.661 273.234 345.356 273.531C346.052 273.828 346.634 274.25 347.102 274.797C347.579 275.344 347.938 276 348.18 276.766C348.423 277.523 348.544 278.367 348.544 279.297V280.703H338.466V278.453H345.227V278.195C345.227 277.727 345.141 277.309 344.97 276.941C344.805 276.566 344.555 276.27 344.22 276.051C343.884 275.832 343.454 275.723 342.93 275.723C342.485 275.723 342.102 275.82 341.782 276.016C341.462 276.211 341.2 276.484 340.997 276.836C340.802 277.188 340.653 277.602 340.552 278.078C340.458 278.547 340.411 279.062 340.411 279.625V280.094C340.411 280.602 340.481 281.07 340.622 281.5C340.77 281.93 340.977 282.301 341.243 282.613C341.516 282.926 341.845 283.168 342.227 283.34C342.618 283.512 343.059 283.598 343.552 283.598C344.161 283.598 344.727 283.48 345.251 283.246C345.782 283.004 346.239 282.641 346.622 282.156L348.262 283.938C347.997 284.32 347.634 284.688 347.173 285.039C346.72 285.391 346.173 285.68 345.532 285.906C344.891 286.125 344.161 286.234 343.341 286.234Z" fill="white"/>
<path d="M359.077 273.32V275.711H351.694V273.32H359.077ZM353.522 270.191H356.897V282.18C356.897 282.547 356.944 282.828 357.038 283.023C357.139 283.219 357.288 283.355 357.483 283.434C357.678 283.504 357.924 283.539 358.221 283.539C358.432 283.539 358.62 283.531 358.784 283.516C358.955 283.492 359.1 283.469 359.217 283.445L359.229 285.93C358.94 286.023 358.627 286.098 358.291 286.152C357.955 286.207 357.584 286.234 357.178 286.234C356.436 286.234 355.788 286.113 355.233 285.871C354.686 285.621 354.264 285.223 353.967 284.676C353.67 284.129 353.522 283.41 353.522 282.52V270.191Z" fill="white"/>
<path d="M375.15 275.945V286H371.763V273.32H374.939L375.15 275.945ZM374.681 279.215H373.744C373.744 278.332 373.849 277.52 374.06 276.777C374.279 276.027 374.595 275.379 375.009 274.832C375.431 274.277 375.951 273.848 376.568 273.543C377.185 273.238 377.9 273.086 378.712 273.086C379.275 273.086 379.791 273.172 380.259 273.344C380.728 273.508 381.13 273.77 381.466 274.129C381.81 274.48 382.076 274.941 382.263 275.512C382.451 276.074 382.545 276.75 382.545 277.539V286H379.17V277.914C379.17 277.336 379.091 276.891 378.935 276.578C378.779 276.266 378.556 276.047 378.267 275.922C377.986 275.797 377.646 275.734 377.248 275.734C376.81 275.734 376.427 275.824 376.099 276.004C375.779 276.184 375.513 276.434 375.302 276.754C375.091 277.066 374.935 277.434 374.834 277.855C374.732 278.277 374.681 278.73 374.681 279.215ZM382.228 278.828L381.021 278.98C381.021 278.152 381.123 277.383 381.326 276.672C381.537 275.961 381.845 275.336 382.252 274.797C382.666 274.258 383.177 273.84 383.787 273.543C384.396 273.238 385.099 273.086 385.896 273.086C386.505 273.086 387.06 273.176 387.56 273.355C388.06 273.527 388.486 273.805 388.837 274.188C389.197 274.562 389.47 275.055 389.658 275.664C389.853 276.273 389.951 277.02 389.951 277.902V286H386.564V277.902C386.564 277.316 386.486 276.871 386.33 276.566C386.181 276.254 385.962 276.039 385.673 275.922C385.392 275.797 385.056 275.734 384.666 275.734C384.259 275.734 383.904 275.816 383.599 275.98C383.295 276.137 383.041 276.355 382.837 276.637C382.634 276.918 382.482 277.246 382.38 277.621C382.279 277.988 382.228 278.391 382.228 278.828Z" fill="white"/>
<path d="M400.8 286.234C399.816 286.234 398.933 286.078 398.152 285.766C397.37 285.445 396.706 285.004 396.159 284.441C395.62 283.879 395.206 283.227 394.917 282.484C394.628 281.734 394.484 280.938 394.484 280.094V279.625C394.484 278.664 394.62 277.785 394.894 276.988C395.167 276.191 395.558 275.5 396.066 274.914C396.581 274.328 397.206 273.879 397.941 273.566C398.675 273.246 399.503 273.086 400.425 273.086C401.323 273.086 402.12 273.234 402.816 273.531C403.511 273.828 404.093 274.25 404.562 274.797C405.038 275.344 405.398 276 405.64 276.766C405.882 277.523 406.003 278.367 406.003 279.297V280.703H395.925V278.453H402.687V278.195C402.687 277.727 402.601 277.309 402.429 276.941C402.265 276.566 402.015 276.27 401.679 276.051C401.343 275.832 400.913 275.723 400.39 275.723C399.945 275.723 399.562 275.82 399.241 276.016C398.921 276.211 398.659 276.484 398.456 276.836C398.261 277.188 398.113 277.602 398.011 278.078C397.917 278.547 397.87 279.062 397.87 279.625V280.094C397.87 280.602 397.941 281.07 398.081 281.5C398.23 281.93 398.437 282.301 398.702 282.613C398.976 282.926 399.304 283.168 399.687 283.34C400.077 283.512 400.519 283.598 401.011 283.598C401.62 283.598 402.187 283.48 402.71 283.246C403.241 283.004 403.698 282.641 404.081 282.156L405.722 283.938C405.456 284.32 405.093 284.688 404.632 285.039C404.179 285.391 403.632 285.68 402.991 285.906C402.351 286.125 401.62 286.234 400.8 286.234Z" fill="white"/>
<path d="M413.7 275.945V286H410.313V273.32H413.489L413.7 275.945ZM413.231 279.215H412.294C412.294 278.332 412.399 277.52 412.61 276.777C412.829 276.027 413.145 275.379 413.559 274.832C413.981 274.277 414.501 273.848 415.118 273.543C415.735 273.238 416.45 273.086 417.262 273.086C417.825 273.086 418.341 273.172 418.809 273.344C419.278 273.508 419.68 273.77 420.016 274.129C420.36 274.48 420.626 274.941 420.813 275.512C421.001 276.074 421.095 276.75 421.095 277.539V286H417.72V277.914C417.72 277.336 417.641 276.891 417.485 276.578C417.329 276.266 417.106 276.047 416.817 275.922C416.536 275.797 416.196 275.734 415.798 275.734C415.36 275.734 414.977 275.824 414.649 276.004C414.329 276.184 414.063 276.434 413.852 276.754C413.641 277.066 413.485 277.434 413.384 277.855C413.282 278.277 413.231 278.73 413.231 279.215ZM420.778 278.828L419.571 278.98C419.571 278.152 419.673 277.383 419.876 276.672C420.087 275.961 420.395 275.336 420.802 274.797C421.216 274.258 421.727 273.84 422.337 273.543C422.946 273.238 423.649 273.086 424.446 273.086C425.055 273.086 425.61 273.176 426.11 273.355C426.61 273.527 427.036 273.805 427.387 274.188C427.747 274.562 428.02 275.055 428.208 275.664C428.403 276.273 428.501 277.02 428.501 277.902V286H425.114V277.902C425.114 277.316 425.036 276.871 424.88 276.566C424.731 276.254 424.512 276.039 424.223 275.922C423.942 275.797 423.606 275.734 423.216 275.734C422.809 275.734 422.454 275.816 422.149 275.98C421.845 276.137 421.591 276.355 421.387 276.637C421.184 276.918 421.032 277.246 420.93 277.621C420.829 277.988 420.778 278.391 420.778 278.828Z" fill="white"/>
<path d="M433.514 268H436.889V283.094L436.549 286H433.514V268ZM444.916 279.531V279.777C444.916 280.723 444.815 281.59 444.612 282.379C444.416 283.168 444.112 283.852 443.698 284.43C443.284 285 442.768 285.445 442.151 285.766C441.541 286.078 440.823 286.234 439.995 286.234C439.221 286.234 438.549 286.078 437.979 285.766C437.416 285.453 436.944 285.012 436.561 284.441C436.178 283.871 435.87 283.203 435.635 282.438C435.401 281.672 435.225 280.836 435.108 279.93V279.391C435.225 278.484 435.401 277.648 435.635 276.883C435.87 276.117 436.178 275.449 436.561 274.879C436.944 274.309 437.416 273.867 437.979 273.555C438.541 273.242 439.205 273.086 439.971 273.086C440.807 273.086 441.534 273.246 442.151 273.566C442.776 273.879 443.291 274.324 443.698 274.902C444.112 275.473 444.416 276.152 444.612 276.941C444.815 277.723 444.916 278.586 444.916 279.531ZM441.541 279.777V279.531C441.541 279.016 441.502 278.531 441.424 278.078C441.354 277.617 441.229 277.215 441.049 276.871C440.87 276.52 440.623 276.242 440.311 276.039C440.006 275.836 439.612 275.734 439.127 275.734C438.666 275.734 438.276 275.812 437.955 275.969C437.635 276.125 437.37 276.344 437.159 276.625C436.955 276.906 436.803 277.242 436.702 277.633C436.6 278.016 436.538 278.438 436.514 278.898V280.434C436.538 281.051 436.639 281.598 436.819 282.074C437.006 282.543 437.288 282.914 437.663 283.188C438.045 283.453 438.541 283.586 439.151 283.586C439.627 283.586 440.022 283.492 440.334 283.305C440.647 283.117 440.889 282.852 441.061 282.508C441.241 282.164 441.366 281.762 441.436 281.301C441.506 280.832 441.541 280.324 441.541 279.777Z" fill="white"/>
<path d="M455.25 286.234C454.266 286.234 453.383 286.078 452.602 285.766C451.82 285.445 451.156 285.004 450.609 284.441C450.07 283.879 449.656 283.227 449.367 282.484C449.078 281.734 448.934 280.938 448.934 280.094V279.625C448.934 278.664 449.07 277.785 449.344 276.988C449.617 276.191 450.008 275.5 450.516 274.914C451.031 274.328 451.656 273.879 452.391 273.566C453.125 273.246 453.953 273.086 454.875 273.086C455.773 273.086 456.57 273.234 457.266 273.531C457.961 273.828 458.543 274.25 459.012 274.797C459.488 275.344 459.848 276 460.09 276.766C460.332 277.523 460.453 278.367 460.453 279.297V280.703H450.375V278.453H457.137V278.195C457.137 277.727 457.051 277.309 456.879 276.941C456.715 276.566 456.465 276.27 456.129 276.051C455.793 275.832 455.363 275.723 454.84 275.723C454.395 275.723 454.012 275.82 453.691 276.016C453.371 276.211 453.109 276.484 452.906 276.836C452.711 277.188 452.562 277.602 452.461 278.078C452.367 278.547 452.32 279.062 452.32 279.625V280.094C452.32 280.602 452.391 281.07 452.531 281.5C452.68 281.93 452.887 282.301 453.152 282.613C453.426 282.926 453.754 283.168 454.137 283.34C454.527 283.512 454.969 283.598 455.461 283.598C456.07 283.598 456.637 283.48 457.16 283.246C457.691 283.004 458.148 282.641 458.531 282.156L460.172 283.938C459.906 284.32 459.543 284.688 459.082 285.039C458.629 285.391 458.082 285.68 457.441 285.906C456.801 286.125 456.07 286.234 455.25 286.234Z" fill="white"/>
<path d="M468.15 276.086V286H464.775V273.32H467.951L468.15 276.086ZM471.97 273.238L471.912 276.367C471.748 276.344 471.548 276.324 471.314 276.309C471.087 276.285 470.88 276.273 470.693 276.273C470.216 276.273 469.802 276.336 469.451 276.461C469.107 276.578 468.818 276.754 468.584 276.988C468.357 277.223 468.185 277.508 468.068 277.844C467.959 278.18 467.896 278.562 467.88 278.992L467.201 278.781C467.201 277.961 467.283 277.207 467.447 276.52C467.611 275.824 467.849 275.219 468.162 274.703C468.482 274.188 468.873 273.789 469.334 273.508C469.795 273.227 470.322 273.086 470.916 273.086C471.103 273.086 471.295 273.102 471.49 273.133C471.685 273.156 471.845 273.191 471.97 273.238Z" fill="white"/>
<path d="M482.82 282.496C482.82 282.254 482.749 282.035 482.609 281.84C482.468 281.645 482.206 281.465 481.823 281.301C481.448 281.129 480.905 280.973 480.195 280.832C479.554 280.691 478.956 280.516 478.402 280.305C477.855 280.086 477.378 279.824 476.972 279.52C476.573 279.215 476.261 278.855 476.034 278.441C475.808 278.02 475.695 277.539 475.695 277C475.695 276.469 475.808 275.969 476.034 275.5C476.269 275.031 476.601 274.617 477.03 274.258C477.468 273.891 477.999 273.605 478.624 273.402C479.257 273.191 479.968 273.086 480.757 273.086C481.859 273.086 482.804 273.262 483.593 273.613C484.39 273.965 484.999 274.449 485.421 275.066C485.851 275.676 486.066 276.371 486.066 277.152H482.691C482.691 276.824 482.62 276.531 482.48 276.273C482.347 276.008 482.136 275.801 481.847 275.652C481.566 275.496 481.198 275.418 480.745 275.418C480.37 275.418 480.046 275.484 479.773 275.617C479.499 275.742 479.288 275.914 479.14 276.133C478.999 276.344 478.929 276.578 478.929 276.836C478.929 277.031 478.968 277.207 479.046 277.363C479.132 277.512 479.269 277.648 479.456 277.773C479.644 277.898 479.886 278.016 480.183 278.125C480.487 278.227 480.862 278.32 481.308 278.406C482.222 278.594 483.038 278.84 483.757 279.145C484.476 279.441 485.046 279.848 485.468 280.363C485.89 280.871 486.101 281.539 486.101 282.367C486.101 282.93 485.976 283.445 485.726 283.914C485.476 284.383 485.116 284.793 484.648 285.145C484.179 285.488 483.616 285.758 482.96 285.953C482.312 286.141 481.581 286.234 480.769 286.234C479.589 286.234 478.589 286.023 477.769 285.602C476.956 285.18 476.339 284.645 475.917 283.996C475.503 283.34 475.296 282.668 475.296 281.98H478.495C478.511 282.441 478.628 282.812 478.847 283.094C479.073 283.375 479.359 283.578 479.702 283.703C480.054 283.828 480.433 283.891 480.839 283.891C481.277 283.891 481.64 283.832 481.929 283.715C482.218 283.59 482.437 283.426 482.585 283.223C482.741 283.012 482.82 282.77 482.82 282.496Z" fill="white"/>
<path d="M493.985 268V286H490.61V268H493.985ZM493.505 279.215H492.579C492.587 278.332 492.704 277.52 492.93 276.777C493.157 276.027 493.481 275.379 493.903 274.832C494.325 274.277 494.829 273.848 495.415 273.543C496.009 273.238 496.665 273.086 497.384 273.086C498.009 273.086 498.575 273.176 499.083 273.355C499.598 273.527 500.04 273.809 500.407 274.199C500.782 274.582 501.071 275.086 501.274 275.711C501.477 276.336 501.579 277.094 501.579 277.984V286H498.18V277.961C498.18 277.398 498.098 276.957 497.934 276.637C497.778 276.309 497.548 276.078 497.243 275.945C496.946 275.805 496.579 275.734 496.141 275.734C495.657 275.734 495.243 275.824 494.899 276.004C494.563 276.184 494.294 276.434 494.091 276.754C493.888 277.066 493.739 277.434 493.645 277.855C493.552 278.277 493.505 278.73 493.505 279.215Z" fill="white"/>
<path d="M510.108 273.32V286H506.721V273.32H510.108ZM506.51 270.016C506.51 269.523 506.682 269.117 507.026 268.797C507.37 268.477 507.83 268.316 508.409 268.316C508.979 268.316 509.436 268.477 509.78 268.797C510.131 269.117 510.307 269.523 510.307 270.016C510.307 270.508 510.131 270.914 509.78 271.234C509.436 271.555 508.979 271.715 508.409 271.715C507.83 271.715 507.37 271.555 507.026 271.234C506.682 270.914 506.51 270.508 506.51 270.016Z" fill="white"/>
<path d="M518.672 275.758V290.875H515.297V273.32H518.426L518.672 275.758ZM526.699 279.52V279.766C526.699 280.688 526.59 281.543 526.371 282.332C526.16 283.121 525.848 283.809 525.434 284.395C525.02 284.973 524.504 285.426 523.887 285.754C523.277 286.074 522.574 286.234 521.777 286.234C521.004 286.234 520.332 286.078 519.762 285.766C519.191 285.453 518.711 285.016 518.32 284.453C517.938 283.883 517.629 283.223 517.395 282.473C517.16 281.723 516.98 280.918 516.855 280.059V279.414C516.98 278.492 517.16 277.648 517.395 276.883C517.629 276.109 517.938 275.441 518.32 274.879C518.711 274.309 519.188 273.867 519.75 273.555C520.32 273.242 520.988 273.086 521.754 273.086C522.559 273.086 523.266 273.238 523.875 273.543C524.492 273.848 525.008 274.285 525.422 274.855C525.844 275.426 526.16 276.105 526.371 276.895C526.59 277.684 526.699 278.559 526.699 279.52ZM523.312 279.766V279.52C523.312 278.98 523.266 278.484 523.172 278.031C523.086 277.57 522.945 277.168 522.75 276.824C522.562 276.48 522.312 276.215 522 276.027C521.695 275.832 521.324 275.734 520.887 275.734C520.426 275.734 520.031 275.809 519.703 275.957C519.383 276.105 519.121 276.32 518.918 276.602C518.715 276.883 518.562 277.219 518.461 277.609C518.359 278 518.297 278.441 518.273 278.934V280.562C518.312 281.141 518.422 281.66 518.602 282.121C518.781 282.574 519.059 282.934 519.434 283.199C519.809 283.465 520.301 283.598 520.91 283.598C521.355 283.598 521.73 283.5 522.035 283.305C522.34 283.102 522.586 282.824 522.773 282.473C522.969 282.121 523.105 281.715 523.184 281.254C523.27 280.793 523.312 280.297 523.312 279.766Z" fill="white"/>
<path d="M544.812 283.598C545.226 283.598 545.593 283.52 545.913 283.363C546.234 283.199 546.484 282.973 546.663 282.684C546.851 282.387 546.948 282.039 546.956 281.641H550.132C550.124 282.531 549.886 283.324 549.417 284.02C548.948 284.707 548.32 285.25 547.53 285.648C546.741 286.039 545.859 286.234 544.882 286.234C543.898 286.234 543.038 286.07 542.304 285.742C541.577 285.414 540.972 284.961 540.487 284.383C540.003 283.797 539.64 283.117 539.398 282.344C539.155 281.562 539.034 280.727 539.034 279.836V279.496C539.034 278.598 539.155 277.762 539.398 276.988C539.64 276.207 540.003 275.527 540.487 274.949C540.972 274.363 541.577 273.906 542.304 273.578C543.03 273.25 543.882 273.086 544.859 273.086C545.898 273.086 546.808 273.285 547.589 273.684C548.378 274.082 548.995 274.652 549.441 275.395C549.894 276.129 550.124 277 550.132 278.008H546.956C546.948 277.586 546.859 277.203 546.687 276.859C546.523 276.516 546.28 276.242 545.96 276.039C545.648 275.828 545.261 275.723 544.8 275.723C544.308 275.723 543.905 275.828 543.593 276.039C543.28 276.242 543.038 276.523 542.866 276.883C542.695 277.234 542.573 277.637 542.503 278.09C542.441 278.535 542.409 279.004 542.409 279.496V279.836C542.409 280.328 542.441 280.801 542.503 281.254C542.566 281.707 542.683 282.109 542.855 282.461C543.034 282.812 543.28 283.09 543.593 283.293C543.905 283.496 544.312 283.598 544.812 283.598Z" fill="white"/>
<path d="M558.052 268V286H554.665V268H558.052Z" fill="white"/>
<path d="M570.741 282.965V273.32H574.116V286H570.94L570.741 282.965ZM571.116 280.363L572.112 280.34C572.112 281.184 572.014 281.969 571.819 282.695C571.623 283.414 571.33 284.039 570.94 284.57C570.549 285.094 570.057 285.504 569.463 285.801C568.87 286.09 568.17 286.234 567.366 286.234C566.748 286.234 566.178 286.148 565.655 285.977C565.139 285.797 564.694 285.52 564.319 285.145C563.952 284.762 563.663 284.273 563.452 283.68C563.248 283.078 563.147 282.355 563.147 281.512V273.32H566.522V281.535C566.522 281.91 566.565 282.227 566.651 282.484C566.745 282.742 566.873 282.953 567.038 283.117C567.202 283.281 567.393 283.398 567.612 283.469C567.838 283.539 568.088 283.574 568.362 283.574C569.057 283.574 569.604 283.434 570.002 283.152C570.409 282.871 570.694 282.488 570.858 282.004C571.03 281.512 571.116 280.965 571.116 280.363Z" fill="white"/>
<path d="M579.094 268H582.469V283.094L582.129 286H579.094V268ZM590.496 279.531V279.777C590.496 280.723 590.395 281.59 590.191 282.379C589.996 283.168 589.691 283.852 589.277 284.43C588.863 285 588.348 285.445 587.73 285.766C587.121 286.078 586.402 286.234 585.574 286.234C584.801 286.234 584.129 286.078 583.559 285.766C582.996 285.453 582.523 285.012 582.141 284.441C581.758 283.871 581.449 283.203 581.215 282.438C580.98 281.672 580.805 280.836 580.688 279.93V279.391C580.805 278.484 580.98 277.648 581.215 276.883C581.449 276.117 581.758 275.449 582.141 274.879C582.523 274.309 582.996 273.867 583.559 273.555C584.121 273.242 584.785 273.086 585.551 273.086C586.387 273.086 587.113 273.246 587.73 273.566C588.355 273.879 588.871 274.324 589.277 274.902C589.691 275.473 589.996 276.152 590.191 276.941C590.395 277.723 590.496 278.586 590.496 279.531ZM587.121 279.777V279.531C587.121 279.016 587.082 278.531 587.004 278.078C586.934 277.617 586.809 277.215 586.629 276.871C586.449 276.52 586.203 276.242 585.891 276.039C585.586 275.836 585.191 275.734 584.707 275.734C584.246 275.734 583.855 275.812 583.535 275.969C583.215 276.125 582.949 276.344 582.738 276.625C582.535 276.906 582.383 277.242 582.281 277.633C582.18 278.016 582.117 278.438 582.094 278.898V280.434C582.117 281.051 582.219 281.598 582.398 282.074C582.586 282.543 582.867 282.914 583.242 283.188C583.625 283.453 584.121 283.586 584.73 283.586C585.207 283.586 585.602 283.492 585.914 283.305C586.227 283.117 586.469 282.852 586.641 282.508C586.82 282.164 586.945 281.762 587.016 281.301C587.086 280.832 587.121 280.324 587.121 279.777Z" fill="white"/>
</g>
<defs>
<clipPath id="clip0_826_125825">
<rect width="801" height="293" fill="white"/>
</clipPath>
</defs>
</svg>
